name C:\Users\Nicos\Documents\OpenSimProjects\Pred_Sim_Sprinting\Pred_Sim_Sprinting\MainFunctions\ExperimentalData\IK_Splined\Splined_50_meshInts_p02_maxVel_01.mot
datacolumns 38
datarows 5
range 0.22803223 0.23260366
endheader
                time	/jointset/ground_pelvis/pelvis_tilt/value	/jointset/ground_pelvis/pelvis_list/value	/jointset/ground_pelvis/pelvis_rotation/value	/jointset/ground_pelvis/pelvis_tx/value	/jointset/ground_pelvis/pelvis_ty/value	/jointset/ground_pelvis/pelvis_tz/value	/jointset/hip_r/hip_flexion_r/value	/jointset/hip_r/hip_adduction_r/value	/jointset/hip_r/hip_rotation_r/value	/jointset/knee_r/knee_angle_r/value	/jointset/ankle_r/ankle_angle_r/value	/jointset/subtalar_r/subtalar_angle_r/value	/jointset/mtp_r/mtp_angle_r/value	/jointset/hip_l/hip_flexion_l/value	/jointset/hip_l/hip_adduction_l/value	/jointset/hip_l/hip_rotation_l/value	/jointset/knee_l/knee_angle_l/value	/jointset/ankle_l/ankle_angle_l/value	/jointset/subtalar_l/subtalar_angle_l/value	/jointset/mtp_l/mtp_angle_l/value	/jointset/back/lumbar_extension/value	/jointset/back/lumbar_bending/value	/jointset/back/lumbar_rotation/value	/jointset/acromial_r/arm_flex_r/value	/jointset/acromial_r/arm_add_r/value	/jointset/acromial_r/arm_rot_r/value	/jointset/elbow_r/elbow_flex_r/value	/jointset/radioulnar_r/pro_sup_r/value	/jointset/radius_hand_r/wrist_flex_r/value	/jointset/radius_hand_r/wrist_dev_r/value	/jointset/acromial_l/arm_flex_l/value	/jointset/acromial_l/arm_add_l/value	/jointset/acromial_l/arm_rot_l/value	/jointset/elbow_l/elbow_flex_l/value	/jointset/radioulnar_l/pro_sup_l/value	/jointset/radius_hand_l/wrist_flex_l/value	/jointset/radius_hand_l/wrist_dev_l/value	
          0.22803223	         -1.37722403	          2.40929484	          5.79856999	         -0.16293925	          1.00141067	          0.31105959	         -9.10074385	         -0.59534000	        -10.66060371	        -86.38431341	        -35.61464674	        -26.11259635	         -8.19564635	         51.79439166	          5.85341930	          5.63837506	        -23.96010487	        -11.25298305	         -4.14613758	          6.20720250	        -12.55152033	        -13.56304103	          3.43588371	          8.26786125	        -20.95777232	         10.96875078	        149.23357900	         56.60759196	        -21.18699272	         15.37885433	        -56.63992152	         -7.73523508	        -44.53770083	         80.84743423	         61.59352178	          9.43167813	         25.13732149	
          0.22962286	         -1.20813367	          2.29676227	          6.02439133	         -0.14789230	          1.00182162	          0.31108513	         -8.45170037	         -0.43428240	        -10.83193051	        -88.02175021	        -35.30803574	        -25.99531615	         -8.03508101	         51.02199394	          5.69965146	          5.20108863	        -23.38144276	        -11.48315158	         -4.12674510	          6.13367680	        -13.11098070	        -13.45376851	          3.67474442	          6.35527753	        -20.88196044	          9.18948509	        148.80384388	         56.46013165	        -21.36390589	         15.56721067	        -55.48857224	         -8.30008897	        -43.53280379	         81.48373482	         61.74110402	          9.50442504	         25.26646499	
          0.22971429	         -1.19828688	          2.29096262	          6.03763726	         -0.14702816	          1.00184414	          0.31108597	         -8.41414532	         -0.42596513	        -10.84233980	        -88.11553208	        -35.29020465	        -25.98730909	         -8.02462499	         50.97802569	          5.69150871	          5.17510206	        -23.35055634	        -11.49601396	         -4.12611553	          6.12920918	        -13.14334516	        -13.44774245	          3.68762083	          6.24654112	        -20.87636978	          9.08765291	        148.77689421	         56.45128244	        -21.37408781	         15.57875223	        -55.42183497	         -8.33239933	        -43.47374847	         81.51947314	         61.74958590	          9.50856804	         25.27394320	
          0.23040891	         -1.12299292	          2.24927319	          6.13919461	         -0.14046541	          1.00201130	          0.31109021	         -8.12800099	         -0.36618303	        -10.92345602	        -88.82679974	        -35.15407888	        -25.92262027	         -7.94124870	         50.64540853	          5.63215624	          4.97512484	        -23.12423526	        -11.59236666	         -4.12309335	          6.09447808	        -13.38992620	        -13.40286764	          3.78225377	          5.42511914	        -20.82969112	          8.31632330	        148.56391319	         56.38293700	        -21.45145736	         15.66895683	        -54.91292151	         -8.57714210	        -43.02069653	         81.78795918	         61.81391102	          9.53990697	         25.33091623	
          0.23260366	         -0.87905065	          2.14509712	          6.47045145	         -0.11975785	          1.00249276	          0.31107940	         -7.21527844	         -0.21788562	        -11.20389026	        -91.05908650	        -34.71756023	        -25.68274430	         -7.63818964	         49.60977587	          5.47440041	          4.32070888	        -22.50462714	        -11.87997992	         -4.13454924	          5.97658952	        -14.17643612	        -13.27166962	          4.04172427	          2.89090818	        -20.63592730	          5.91777328	        147.79180633	         56.15714782	        -21.69556551	         15.98289680	        -53.28469373	         -9.33931621	        -41.54153731	         82.60003457	         62.01416782	          9.63731372	         25.51219748	
